SplineFontDB: 3.2
FontName: StandardSymSL
FullName: Standard Symbols SL
FamilyName: Standard Symbols SL
Weight: Italic
Copyright: Copyright URW Software, Copyright 1997 by URW
Version: 001.005_%{version}-%{release}
ItalicAngle: 0
UnderlinePosition: -229
UnderlineWidth: 46
Ascent: 800
Descent: 200
InvalidEm: 0
LayerCount: 2
Layer: 0 0 "Back" 1
Layer: 1 0 "Fore" 0
OS2Version: 0
OS2_WeightWidthSlopeOnly: 0
OS2_UseTypoMetrics: 0
CreationTime: 1750917588
ModificationTime: 1750917588
OS2TypoAscent: 0
OS2TypoAOffset: 1
OS2TypoDescent: 0
OS2TypoDOffset: 1
OS2TypoLinegap: 0
OS2WinAscent: 0
OS2WinAOffset: 1
OS2WinDescent: 0
OS2WinDOffset: 1
HheadAscent: 0
HheadAOffset: 1
HheadDescent: 0
HheadDOffset: 1
OS2Vendor: 'PfEd'
DEI: 91125
Encoding: Custom
UnicodeInterp: none
NameList: AGL For New Fonts
DisplaySize: -48
AntiAlias: 1
FitToEm: 0
WinInfo: 0 16 13
BeginPrivate: 7
BlueValues 10 [ 673 693]
BlueScale 8 0.039625
StdHW 3 [0]
StdVW 3 [0]
StemSnapH 2 []
StemSnapV 2 []
ForceBold 5 false
EndPrivate
BeginChars: 256 29

StartChar: theta1
Encoding: 74 977 1
Width: 631
Flags: MW
HStem: 25 32<228 262.5> 275 56 389 61 616 32<408 434.5>
VStem: 100 79<116.5 129.5 116.5 132> 306 35<496 510.5> 480 65<494.5 511 476 513>
LayerCount: 2
Fore
SplineSet
588 331 m 1
 573 275 l 1
 557 282 537 292 514 303 c 1
 499 253 480 211 450 165 c 0
 389 73 310 25 215 25 c 0
 142 25 100 64 100 125 c 0
 100 139 102 155 107 171 c 0
 116 203 123 222 162 318 c 0
 167 331 171 343 173 350 c 0
 175 354 175 358 175 361 c 0
 175 378 163 389 144 389 c 0
 125 389 113 378 74 331 c 1
 50 331 l 1
 79 375 85 383 101 400 c 0
 134 435 161 449 195 449 c 0
 235 449 259 425 259 390 c 0
 259 382 258 374 256 365 c 0
 251 348 250 345 217 260 c 0
 202 220 190 190 186 173 c 0
 181 157 179 138 179 121 c 0
 179 112 180 105 181 98 c 0
 187 74 212 57 244 57 c 0
 325 57 402 147 441 288 c 2
 452 330 l 1
 357 375 306 436 306 504 c 0
 306 517 308 530 312 543 c 0
 328 604 381 648 435 648 c 0
 473 648 504 625 525 583 c 0
 538 555 545 529 545 493 c 0
 545 459 539 415 527 352 c 1
 534 350 545 345 562 339 c 0
 564 338 572 335 588 331 c 1
465 377 m 1
 476 444 480 481 480 508 c 0
 480 518 480 527 478 535 c 0
 473 588 452 616 417 616 c 0
 385 616 355 590 345 554 c 0
 342 544 341 535 341 525 c 0
 341 467 388 410 465 377 c 1
EndSplineSet
EndChar

StartChar: sigma1
Encoding: 86 962 2
Width: 439
Flags: MW
HStem: -182 81<160 266> 10 93 401 71
VStem: 68 49<98 193> 328 47<-17.5 35>
LayerCount: 2
Fore
SplineSet
310 401 m 0
 236 401 149 321 124 230 c 0
 119 215 117 200 117 186 c 0
 117 137 144 102 188 102 c 0
 190 102 231 104 251 106 c 0
 265 107 278 107 290 107 c 0
 323 107 341 101 356 83 c 0
 368 67 375 47 375 23 c 0
 375 10 373 -3 369 -17 c 0
 344 -106 256 -182 177 -182 c 0
 143 -182 119 -162 119 -137 c 0
 119 -133 119 -129 120 -126 c 0
 127 -100 151 -85 181 -85 c 0
 197 -85 206 -86 235 -98 c 0
 239 -100 245 -101 250 -101 c 0
 282 -101 315 -70 326 -32 c 0
 328 -26 328 -20 328 -15 c 0
 328 4 316 14 291 14 c 0
 288 14 279 14 270 13 c 0
 253 12 190 10 176 10 c 0
 109 10 68 61 68 135 c 0
 68 156 71 178 77 202 c 0
 118 348 261 473 387 473 c 0
 441 473 474 456 474 430 c 0
 474 427 474 424 473 421 c 0
 467 399 444 386 413 386 c 0
 399 386 398 386 343 397 c 0
 332 400 318 401 310 401 c 0
EndSplineSet
EndChar

StartChar: alpha
Encoding: 97 945 3
Width: 631
Flags: W
HStem: 16 34<197 233 197 233> 16 68<467.5 468.5> 446 38<309.5 347.5>
VStem: 58 91 402 41<319 370.5> 542 23
LayerCount: 2
Fore
SplineSet
540 472 m 1xbc
 619 472 l 1
 441 192 l 2
 440 183 439 175 439 166 c 0
 439 118 455 84 480 84 c 0
 502 84 528 116 542 162 c 1
 566 162 l 1
 551 112 543 92 531 72 c 0
 509 35 483 16 454 16 c 0x7c
 425 16 414 30 405 80 c 0
 401 102 400 118 400 135 c 1
 341 56 272 16 194 16 c 0
 106 16 58 67 58 154 c 0
 58 181 62 211 71 245 c 0
 96 333 139 397 200 439 c 0
 241 467 289 484 330 484 c 0
 405 484 444 435 444 343 c 0
 444 335 443 327 443 319 c 1
 540 472 l 1xbc
396 242 m 1
 400 294 l 2
 402 308 402 321 402 333 c 0
 402 408 375 446 320 446 c 0
 293 446 269 433 246 408 c 0
 212 368 184 314 166 250 c 0
 155 207 148 168 148 136 c 0
 148 120 150 106 153 93 c 0
 160 68 183 50 211 50 c 0xbc
 255 50 303 93 359 184 c 2
 396 242 l 1
EndSplineSet
EndChar

StartChar: beta
Encoding: 98 946 4
Width: 549
Flags: W
HStem: 17 44<218 271 215.5 297> 382 59<289 317.5> 388 45<342.5 371.5> 654 33<346.5 394.5>
VStem: 394 92<273 304.5 263.5 305.5> 441 86
LayerCount: 2
Fore
SplineSet
23 -27 m 2x98
 180 539 l 2
 203 624 293 687 389 687 c 0
 471 687 528 638 528 574 c 0x94
 528 564 526 553 523 542 c 0
 509 491 466 450 388 414 c 1
 454 382 486 336 486 273 c 0
 486 254 483 233 476 210 c 0
 445 95 350 17 244 17 c 0
 192 17 157 30 120 66 c 1
 86 -55 l 2
 67 -125 57 -149 40 -169 c 1
 -33 -169 l 1
 -14 -135 10 -74 23 -27 c 2x98
253 548 m 2
 134 117 l 1
 154 82 193 61 238 61 c 0
 304 61 357 114 382 203 c 0
 390 232 394 260 394 286 c 0
 394 325 385 359 367 381 c 0
 363 386 358 388 346 388 c 0xb8
 339 388 330 387 318 384 c 0
 309 383 304 382 299 382 c 0
 279 382 266 390 266 403 c 0
 266 405 267 407 267 409 c 0
 272 426 293 441 314 441 c 0xd8
 321 441 328 440 341 437 c 0
 354 433 357 433 360 433 c 0xb8
 383 433 422 484 435 531 c 0
 439 547 441 562 441 576 c 0
 441 623 416 654 373 654 c 0
 320 654 271 611 253 548 c 2
EndSplineSet
EndChar

StartChar: chi
Encoding: 99 967 5
Width: 549
Flags: MW
HStem: -210 93 434 79
LayerCount: 2
Fore
SplineSet
463 462 m 1
 556 462 l 1
 283 130 l 1
 281 59 l 2
 280 47 280 35 280 24 c 0
 280 -59 294 -87 331 -87 c 0
 354 -87 378 -76 397 -55 c 0
 405 -46 411 -37 429 -6 c 1
 450 -6 l 1
 435 -52 418 -85 395 -112 c 0
 366 -147 327 -170 295 -170 c 0
 259 -170 236 -143 231 -93 c 0
 231 -88 231 -84 231 -78 c 0
 231 -64 232 -44 236 4 c 2
 243 82 l 1
 52 -153 l 1
 -43 -153 l 1
 250 201 l 1
 253 311 l 2
 254 316 254 320 254 325 c 0
 254 343 252 358 249 367 c 0
 240 389 221 403 200 403 c 0
 167 403 130 368 109 315 c 1
 85 315 l 1
 122 414 176 473 229 473 c 0
 271 473 295 442 295 390 c 0
 295 388 295 386 295 383 c 2
 290 250 l 1
 463 462 l 1
EndSplineSet
EndChar

StartChar: delta
Encoding: 100 948 6
Width: 494
Flags: MW
HStem: 28 42<161.5 213.5> 661 37
VStem: 18 97<135 175.5 135 178.5> 181 46<585 590> 339 94
LayerCount: 2
Fore
SplineSet
276 435 m 1
 212 516 l 2
 190 543 181 564 181 586 c 0
 181 594 182 602 184 610 c 0
 199 665 260 699 343 699 c 0
 429 699 491 665 491 623 c 0
 491 619 491 615 490 610 c 0
 484 589 461 572 437 572 c 0
 415 572 405 580 379 618 c 0
 355 651 338 661 306 661 c 0
 271 661 237 638 228 609 c 0
 227 605 227 602 227 598 c 0
 227 572 252 543 313 498 c 0
 379 450 391 440 411 402 c 0
 426 376 434 345 434 312 c 0
 434 291 431 269 424 246 c 0
 392 129 269 28 158 28 c 0
 73 28 18 89 18 170 c 0
 18 187 20 204 25 222 c 0
 44 289 95 351 165 392 c 0
 196 409 226 421 276 435 c 1
295 412 m 1
 209 395 153 338 127 242 c 0
 119 213 115 187 115 164 c 0
 115 106 139 70 184 70 c 0
 246 70 305 130 329 217 c 0
 336 242 339 266 339 288 c 0
 339 334 325 374 295 412 c 1
EndSplineSet
EndChar

StartChar: epsilon
Encoding: 101 949 7
Width: 439
Flags: W
HStem: 16 44<193.5 217.5> 234 50<265 307> 241 37<204 218.5> 453 31<272.5 295>
VStem: 12 97<119.5 123.5> 83 82<323.5 335 314.5 337> 332 89
LayerCount: 2
Fore
SplineSet
353 139 m 1xba
 372 131 l 1
 332 52 267 16 168 16 c 0
 72 16 12 58 12 119 c 0xba
 12 128 13 138 16 148 c 0
 23 173 41 201 63 220 c 0
 84 238 104 247 143 260 c 1
 119 273 112 278 102 286 c 0
 90 297 83 314 83 333 c 0
 83 341 84 350 87 359 c 0
 96 392 119 419 158 444 c 0
 200 472 244 484 301 484 c 0
 375 484 423 456 423 417 c 0
 423 412 422 407 421 402 c 0
 414 377 389 358 366 358 c 0
 348 358 336 368 332 388 c 0
 331 390 331 397 330 410 c 0
 328 439 311 453 279 453 c 0
 233 453 184 410 169 358 c 0
 167 348 165 339 165 331 c 0
 165 298 186 278 222 278 c 0xb6
 230 278 238 279 268 282 c 0
 284 284 291 284 298 284 c 0
 316 284 325 279 325 269 c 0
 325 267 324 265 324 262 c 0
 319 246 296 234 269 234 c 0xd6
 261 234 250 236 240 238 c 0
 231 240 223 241 214 241 c 0
 167 241 128 207 113 155 c 0
 110 144 109 134 109 126 c 0
 109 113 113 102 121 92 c 0
 140 71 172 60 215 60 c 0
 279 60 318 83 353 139 c 1xba
EndSplineSet
EndChar

StartChar: phi
Encoding: 102 966 8
Width: 521
Flags: MW
HStem: -222 20 666 20
VStem: 27 97 238 41 393 97
LayerCount: 2
Fore
SplineSet
218 19 m 1
 191 -77 l 1
 184 -101 l 2
 174 -140 174 -143 167 -172 c 1
 128 -162 l 1
 137 -137 145 -112 156 -72 c 2
 181 18 l 1
 95 25 44 83 44 169 c 0
 44 191 48 215 55 241 c 0
 89 364 198 465 308 478 c 1
 330 557 l 2
 340 592 345 615 350 636 c 1
 387 619 l 1
 379 599 374 582 365 549 c 2
 345 478 l 1
 433 471 483 415 483 331 c 0
 483 309 479 285 472 260 c 0
 437 134 331 34 218 19 c 1
191 55 m 1
 300 446 l 1
 236 444 180 382 152 281 c 0
 142 242 136 205 136 171 c 0
 136 144 140 119 147 99 c 0
 155 79 169 65 191 55 c 1
335 440 m 1
 226 50 l 1
 292 54 346 115 375 220 c 0
 386 259 391 294 391 325 c 0
 391 384 372 425 335 440 c 1
EndSplineSet
EndChar

StartChar: gamma
Encoding: 103 947 9
Width: 411
Flags: MW
HStem: 431 82
LayerCount: 2
Fore
SplineSet
450 461 m 1
 545 461 l 1
 257 75 l 1
 249 8 242 -35 234 -62 c 0
 214 -133 178 -179 141 -179 c 0
 120 -179 109 -164 109 -139 c 0
 109 -130 110 -120 113 -109 c 0
 122 -79 134 -53 166 -4 c 0
 196 44 214 72 219 81 c 2
 228 155 l 2
 233 187 235 224 235 257 c 0
 235 292 233 325 229 348 c 0
 222 385 209 400 185 400 c 0
 159 400 133 382 115 353 c 0
 108 341 103 328 94 304 c 1
 75 304 l 1
 78 315 l 2
 101 390 111 412 138 440 c 0
 158 460 186 473 212 473 c 0
 261 473 280 444 280 361 c 0
 280 341 279 318 277 292 c 2
 266 155 l 1
 450 461 l 1
EndSplineSet
EndChar

StartChar: eta
Encoding: 104 951 10
Width: 603
Flags: W
HStem: 410 62 416 50
VStem: 194 87 325 82<-182 -175 -182 -159> 451 89
LayerCount: 2
Fore
SplineSet
99 16 m 1xb8
 188 333 l 2
 192 347 194 360 194 372 c 0
 194 399 183 416 164 416 c 0
 143 416 123 390 103 335 c 1
 81 335 l 1
 91 368 99 386 115 408 c 0
 142 443 182 465 217 465 c 0x78
 244 465 266 453 276 433 c 0
 279 425 280 417 280 406 c 0
 280 399 280 392 279 382 c 1
 345 449 389 473 442 473 c 0
 502 473 539 436 539 382 c 0
 539 370 537 358 534 344 c 2
 412 -93 l 2
 408 -108 406 -124 406 -147 c 0
 406 -157 407 -168 407 -182 c 1
 325 -182 l 1
 325 -136 329 -102 337 -72 c 2
 445 319 l 2
 449 331 451 342 451 352 c 0
 451 389 429 410 389 410 c 0
 350 410 313 388 267 340 c 1
 177 16 l 1
 99 16 l 1xb8
EndSplineSet
EndChar

StartChar: iota
Encoding: 105 953 11
Width: 329
Flags: MW
HStem: -13 52 493 20
VStem: 0 88
LayerCount: 2
Fore
SplineSet
237 484 m 1
 143 144 l 2
 137 125 135 110 135 98 c 0
 135 74 145 62 164 62 c 0
 186 62 203 80 224 124 c 1
 249 123 l 1
 234 93 224 77 209 61 c 0
 182 34 145 16 111 16 c 0
 86 16 65 27 56 46 c 0
 53 54 51 62 51 72 c 0
 51 85 54 103 62 131 c 2
 121 345 l 2
 127 366 130 381 130 392 c 0
 130 411 120 417 98 417 c 0
 91 417 80 416 62 415 c 1
 68 437 l 1
 121 447 196 468 237 484 c 1
EndSplineSet
EndChar

StartChar: phi1
Encoding: 106 981 12
Width: 603
Flags: MW
HStem: 17 38<250 260> 404 69<445.5 470>
VStem: 87 95<139 181.5 134.5 198> 510 86
LayerCount: 2
Fore
SplineSet
346 468 m 1
 341 448 l 1
 272 424 225 365 198 268 c 0
 188 230 182 196 182 167 c 0
 182 102 209 63 260 55 c 1
 320 298 l 2
 325 319 329 331 329 331 c 2
 352 417 412 473 479 473 c 0
 550 473 597 408 597 323 c 0
 597 301 594 278 587 255 c 0
 552 127 426 20 309 17 c 1
 254 -182 l 1
 195 -182 l 1
 250 17 l 1
 149 22 87 91 87 187 c 0
 87 209 90 232 97 256 c 0
 130 376 232 462 346 468 c 1
374 287 m 2
 319 53 l 1
 401 60 474 128 500 225 c 0
 507 249 510 274 510 296 c 0
 510 356 488 404 452 404 c 0
 422 404 396 371 379 310 c 0
 378 308 376 299 374 287 c 2
EndSplineSet
EndChar

StartChar: kappa
Encoding: 107 954 13
Width: 549
Flags: MW
HStem: 0 20 493 20
VStem: 119 78
LayerCount: 2
Fore
SplineSet
216 286 m 1
 252 312 l 1
 273 328 l 2
 331 374 419 435 456 455 c 0
 480 468 501 474 523 474 c 0
 556 474 577 459 577 436 c 0
 577 432 577 428 576 424 c 0
 568 398 539 377 509 377 c 0
 495 377 489 380 478 391 c 0
 466 404 461 406 453 406 c 0
 437 406 417 394 340 337 c 2
 290 301 l 1
 380 127 l 2
 412 69 412 69 423 62 c 0
 435 53 447 50 464 50 c 2
 472 50 l 1
 466 28 l 1
 255 28 l 1
 260 46 l 1
 264 46 l 2
 293 48 300 51 303 62 c 0
 304 64 304 65 304 66 c 0
 304 70 301 75 292 94 c 2
 206 251 l 1
 145 28 l 1
 75 28 l 1
 163 346 l 2
 169 367 172 382 172 393 c 0
 172 412 162 418 140 418 c 0
 132 418 122 417 106 415 c 1
 112 438 l 1
 190 454 239 469 271 485 c 1
 216 286 l 1
EndSplineSet
EndChar

StartChar: lambda
Encoding: 108 955 14
Width: 549
Flags: MW
HStem: -13 88 660 80
LayerCount: 2
Fore
SplineSet
149 547 m 1
 128 547 l 1
 167 652 208 699 262 699 c 0
 292 699 314 683 326 655 c 0
 333 637 336 596 336 544 c 0
 336 501 334 451 329 400 c 0
 328 391 327 384 328 382 c 2
 320 267 l 2
 317 232 315 210 315 193 c 0
 315 177 316 166 319 155 c 0
 325 124 343 107 370 107 c 0
 402 107 429 133 449 179 c 1
 468 179 l 1
 455 137 445 113 429 89 c 0
 403 50 369 28 335 28 c 0
 302 28 279 49 270 87 c 0
 268 98 267 110 267 128 c 0
 267 170 273 237 286 359 c 1
 47 40 l 1
 -37 40 l 1
 292 484 l 1
 293 502 293 519 293 533 c 0
 293 546 293 557 292 565 c 0
 290 605 272 627 243 627 c 0
 203 627 169 598 149 547 c 1
EndSplineSet
EndChar

StartChar: mu
Encoding: 109 181 15
Width: 576
Flags: W
HStem: 4 48<381 456.5> 4 63<158 246.5>
VStem: -12 92 333 85<80 87 84.5 87>
LayerCount: 2
Fore
SplineSet
515 460 m 1x70
 424 132 l 2
 420 117 418 104 418 93 c 0
 418 67 428 52 446 52 c 0
 467 52 493 79 506 112 c 1
 530 112 l 1
 498 43 449 4 394 4 c 0xb0
 368 4 347 15 339 34 c 0
 335 45 333 55 333 74 c 0
 333 78 333 82 333 87 c 1
 271 31 218 4 173 4 c 0
 143 4 125 14 96 45 c 1
 93 34 l 2
 86 9 86 0 86 -32 c 0
 86 -83 85 -95 80 -114 c 0
 69 -153 44 -179 18 -179 c 0
 -1 -179 -12 -164 -12 -141 c 0
 -12 -133 -11 -125 -9 -115 c 0
 -3 -95 -1 -90 30 -34 c 0
 44 -8 53 15 58 33 c 2
 177 460 l 1
 255 460 l 1
 174 166 l 2
 169 151 167 138 167 126 c 0
 167 88 189 67 228 67 c 0
 265 67 301 87 346 132 c 1
 436 460 l 1
 515 460 l 1x70
EndSplineSet
EndChar

StartChar: nu
Encoding: 110 957 16
Width: 521
Flags: MW
HStem: -13 20 493 20
LayerCount: 2
Fore
SplineSet
69 436 m 1
 76 462 l 1
 120 464 158 471 202 484 c 1
 243 135 l 1
 337 254 l 2
 370 294 383 316 389 339 c 0
 392 349 394 362 396 384 c 0
 399 426 399 429 401 434 c 0
 408 461 437 484 462 484 c 0
 485 484 501 468 501 445 c 0
 501 441 500 436 498 431 c 0
 490 399 453 345 373 246 c 2
 293 149 l 2
 284 137 276 125 266 112 c 0
 230 67 229 65 197 16 c 1
 170 16 l 1
 128 380 l 2
 121 433 120 435 69 436 c 1
EndSplineSet
EndChar

StartChar: omicron
Encoding: 111 959 17
Width: 549
Flags: MW
HStem: -13 37 476 37
VStem: 35 99 403 98
LayerCount: 2
Fore
SplineSet
340 484 m 0
 432 484 489 423 489 332 c 0
 489 310 486 287 479 262 c 0
 440 124 317 16 198 16 c 0
 105 16 48 78 48 170 c 0
 48 192 51 216 58 242 c 0
 96 379 218 484 340 484 c 0
311 451 m 0
 244 451 187 389 157 281 c 0
 147 243 141 204 141 170 c 0
 141 143 145 118 152 99 c 0
 163 68 193 49 226 49 c 0
 293 49 350 112 380 221 c 0
 391 261 397 297 397 329 c 0
 397 404 366 451 311 451 c 0
EndSplineSet
EndChar

StartChar: pi
Encoding: 112 960 18
Width: 549
Flags: MW
HStem: -13 98 411 89
VStem: 312 73
LayerCount: 2
Fore
SplineSet
82 337 m 1
 64 337 l 1
 94 390 116 416 148 441 c 0
 180 466 199 472 247 472 c 2
 558 472 l 1
 537 393 l 1
 424 393 l 1
 405 344 377 261 358 193 c 0
 353 174 351 161 351 150 c 0
 351 144 351 139 353 134 c 0
 357 115 372 102 390 102 c 0
 420 102 443 125 459 167 c 1
 480 167 l 1
 465 123 457 106 438 81 c 0
 405 39 367 15 332 15 c 0
 295 15 275 43 275 93 c 0
 275 116 280 144 288 175 c 0
 303 226 337 322 367 393 c 1
 270 393 l 1
 228 278 l 2
 195 188 157 97 143 74 c 0
 121 36 94 15 66 15 c 0
 43 15 29 31 29 51 c 0
 29 55 29 60 31 64 c 0
 36 84 48 98 83 123 c 0
 120 150 137 170 148 195 c 2
 226 393 l 1
 185 393 l 2
 142 393 124 383 82 337 c 1
EndSplineSet
EndChar

StartChar: theta
Encoding: 113 952 19
Width: 521
Flags: MW
HStem: -13 39 312 56 649 37
LayerCount: 2
Fore
SplineSet
350 648 m 0
 389 648 425 629 451 596 c 0
 472 568 483 529 483 479 c 0
 483 437 475 388 459 332 c 0
 426 211 366 116 293 67 c 0
 251 40 212 25 178 25 c 0
 139 25 103 44 77 77 c 0
 56 105 45 145 45 195 c 0
 45 236 53 284 67 336 c 0
 102 461 161 557 235 606 c 0
 276 633 316 648 350 648 c 0
363 315 m 1
 153 315 l 1
 136 248 127 200 127 162 c 0
 127 142 130 124 134 108 c 0
 142 82 164 60 187 60 c 0
 210 60 244 81 267 108 c 0
 306 155 333 213 363 315 c 1
167 365 m 1
 377 365 l 1
 393 428 401 475 401 513 c 0
 401 533 399 551 395 567 c 0
 387 593 363 615 341 615 c 0
 319 615 284 593 261 567 c 0
 223 520 195 462 167 365 c 1
EndSplineSet
EndChar

StartChar: rho
Encoding: 114 961 20
Width: 549
Flags: MW
HStem: -13 49 453 60
VStem: 60 90 398 92
LayerCount: 2
Fore
SplineSet
138 57 m 1
 101 -77 l 2
 81 -148 80 -149 67 -180 c 1
 -16 -180 l 1
 0 -147 7 -126 17 -91 c 2
 114 258 l 2
 132 321 148 352 182 383 c 0
 213 411 250 437 289 456 c 0
 315 468 335 473 364 473 c 0
 453 473 506 414 506 326 c 0
 506 303 503 279 496 254 c 0
 459 120 334 5 228 5 c 0
 183 5 152 23 138 57 c 1
201 303 m 1
 165 154 l 2
 161 135 159 127 159 119 c 0
 159 116 159 113 160 110 c 0
 167 74 197 48 234 48 c 0
 307 48 375 113 401 209 c 0
 408 234 411 258 411 280 c 0
 411 360 370 419 305 419 c 0
 285 419 266 409 247 391 c 0
 225 370 214 350 205 316 c 2
 201 303 l 1
EndSplineSet
EndChar

StartChar: sigma
Encoding: 115 963 21
Width: 603
Flags: MW
HStem: -13 43 413 87
VStem: 30 105 427 106
LayerCount: 2
Fore
SplineSet
599 394 m 1
 404 394 l 1
 469 350 503 297 503 243 c 0
 503 230 501 218 498 206 c 0
 485 158 446 107 396 70 c 0
 345 34 288 15 228 15 c 0
 158 15 113 38 82 92 c 0
 64 121 55 156 55 192 c 0
 55 212 58 234 64 255 c 0
 87 337 155 407 252 446 c 0
 298 464 348 472 419 472 c 2
 621 472 l 1
 599 394 l 1
362 394 m 1
 335 394 l 2
 251 394 180 338 157 253 c 0
 150 229 147 206 147 185 c 0
 147 108 187 53 251 53 c 0
 317 53 379 116 404 208 c 0
 411 232 415 252 415 270 c 0
 415 308 399 341 362 394 c 1
EndSplineSet
EndChar

StartChar: tau
Encoding: 116 964 22
Width: 439
Flags: MW
HStem: -13 97 405 95
VStem: 181 57
LayerCount: 2
Fore
SplineSet
72 302 m 1
 49 302 l 1
 81 364 106 398 143 429 c 0
 180 460 211 472 257 472 c 2
 459 472 l 1
 435 387 l 1
 289 387 l 1
 281 367 279 358 267 324 c 0
 257 296 248 269 244 260 c 0
 233 229 224 201 220 187 c 0
 217 177 216 167 216 158 c 0
 216 125 234 102 265 102 c 0
 293 102 310 119 332 170 c 1
 354 170 l 1
 340 128 330 103 312 78 c 0
 288 41 245 15 209 15 c 0
 171 15 151 42 151 91 c 0
 151 112 155 138 164 167 c 0
 179 223 203 289 243 387 c 1
 178 387 l 2
 154 387 141 383 125 368 c 0
 107 351 89 328 72 302 c 1
EndSplineSet
EndChar

StartChar: upsilon
Encoding: 117 965 23
Width: 576
Flags: MW
HStem: -13 42 433 80
VStem: 453 82
LayerCount: 2
Fore
SplineSet
91 351 m 1
 64 351 l 1
 67 357 70 361 72 365 c 0
 103 416 111 428 132 448 c 0
 156 472 182 484 211 484 c 0
 249 484 267 466 267 424 c 0
 267 403 263 375 253 340 c 2
 212 183 l 2
 207 164 205 146 205 130 c 0
 205 83 227 53 265 53 c 0
 299 53 333 75 362 113 c 0
 396 157 422 212 437 265 c 0
 445 295 449 323 449 348 c 0
 449 372 446 393 438 409 c 0
 429 430 417 442 387 462 c 1
 400 484 l 1
 453 461 477 443 496 410 c 0
 510 386 517 357 517 324 c 0
 517 301 513 276 506 250 c 0
 487 183 448 117 402 76 c 0
 358 38 300 16 242 16 c 0
 168 16 129 55 129 124 c 0
 129 142 132 163 138 186 c 2
 175 330 l 2
 182 357 186 376 186 389 c 0
 186 407 178 413 164 413 c 0
 139 413 114 392 91 351 c 1
EndSplineSet
EndChar

StartChar: omega1
Encoding: 118 982 24
Width: 713
Flags: MW
HStem: -13 50 493 90
VStem: 25 106 561 106
LayerCount: 2
Fore
SplineSet
686 470 m 1
 539 470 l 1
 598 454 631 399 631 324 c 0
 631 297 626 267 618 236 c 0
 584 114 488 20 397 20 c 0
 343 20 310 49 297 110 c 1
 250 49 201 20 146 20 c 0
 77 20 35 76 35 157 c 0
 35 182 38 208 46 236 c 0
 79 354 161 446 253 470 c 1
 188 469 153 459 102 424 c 1
 87 424 l 1
 114 468 142 499 179 524 c 0
 211 544 230 550 263 550 c 2
 708 550 l 1
 686 470 l 1
455 470 m 1
 339 470 l 1
 298 459 272 445 246 423 c 0
 203 386 163 316 143 243 c 0
 132 204 126 166 126 135 c 0
 126 121 127 108 130 98 c 0
 135 78 153 64 177 64 c 0
 206 64 239 84 260 113 c 0
 273 130 279 143 293 173 c 1
 292 192 291 207 291 221 c 0
 291 252 295 275 303 305 c 0
 320 366 348 403 378 403 c 0
 398 403 408 388 408 360 c 0
 408 345 405 326 399 305 c 0
 387 261 374 233 336 173 c 1
 334 156 333 145 333 135 c 0
 333 128 334 121 335 113 c 0
 340 84 363 64 391 64 c 0
 415 64 441 78 457 98 c 0
 483 130 509 185 525 243 c 0
 535 278 540 312 540 341 c 0
 540 379 532 411 516 431 c 0
 502 450 485 460 455 470 c 1
EndSplineSet
EndChar

StartChar: omega
Encoding: 119 969 25
Width: 686
Flags: MW
HStem: -13 50 493 20
VStem: 42 106 298 130 578 106
LayerCount: 2
Fore
SplineSet
479 461 m 1
 486 484 l 1
 539 483 571 477 595 462 c 0
 636 437 657 388 657 325 c 0
 657 297 653 266 644 233 c 0
 610 110 514 16 424 16 c 0
 370 16 336 45 323 106 c 1
 276 45 226 16 173 16 c 0
 103 16 61 72 61 154 c 0
 61 178 65 205 73 233 c 0
 103 343 176 434 258 466 c 0
 289 478 322 483 370 484 c 1
 364 461 l 1
 323 450 298 438 271 416 c 0
 228 379 189 311 169 239 c 0
 158 200 152 162 152 132 c 0
 152 117 153 105 156 94 c 0
 161 74 180 60 203 60 c 0
 247 60 287 98 319 169 c 1
 318 188 317 203 317 217 c 0
 317 248 321 271 329 301 c 0
 346 362 374 400 404 400 c 0
 424 400 434 384 434 356 c 0
 434 341 431 322 425 301 c 0
 413 257 400 229 362 169 c 1
 361 159 360 149 360 141 c 0
 360 87 380 60 418 60 c 0
 441 60 467 74 484 94 c 0
 509 126 536 182 551 239 c 0
 561 273 565 305 565 334 c 0
 565 372 557 403 541 424 c 0
 526 441 510 452 479 461 c 1
EndSplineSet
EndChar

StartChar: xi
Encoding: 120 958 26
Width: 493
Flags: W
HStem: -168 80<161 258.5> 27 90<164 278> 381 82 662 20G<405.5 433>
VStem: 26 53<130.5 205> 175 35 187 52<614 643> 317 58
LayerCount: 2
Fore
SplineSet
303 710 m 1xfb
 298 694 l 1
 265 685 246 672 240 652 c 0
 239 648 239 645 239 641 c 0xfb
 239 624 252 612 276 611 c 1
 346 662 389 682 422 682 c 0
 444 682 455 675 455 663 c 0
 455 660 455 658 454 656 c 0
 448 635 423 613 388 598 c 0
 361 585 329 580 284 578 c 1
 244 553 220 527 212 499 c 0
 210 492 209 486 209 480 c 0
 209 461 219 446 242 425 c 1
 312 453 347 462 382 462 c 0
 417 462 436 453 436 437 c 0
 436 435 436 433 435 430 c 0
 427 399 379 381 308 381 c 0
 281 381 264 383 241 392 c 1
 155 349 102 296 84 233 c 0
 81 221 79 210 79 200 c 0
 79 167 94 141 119 128 c 0
 133 121 162 117 201 117 c 2
 278 117 l 2
 318 117 336 113 352 97 c 0
 368 82 376 63 376 40 c 0
 376 29 374 17 370 4 c 0
 359 -37 333 -78 299 -112 c 0
 259 -150 222 -168 180 -168 c 0
 142 -168 119 -152 119 -128 c 0
 119 -124 120 -120 121 -116 c 0
 127 -94 146 -79 169 -79 c 0
 177 -79 184 -80 204 -82 c 0
 221 -86 237 -88 242 -88 c 0
 275 -88 306 -63 315 -29 c 0
 317 -23 317 -17 317 -12 c 0
 317 13 300 30 272 30 c 0
 271 30 270 30 269 30 c 0
 226 28 207 27 191 27 c 0
 137 27 103 33 79 47 c 0
 45 66 26 107 26 154 c 0
 26 172 29 190 34 209 c 0
 48 260 83 315 125 352 c 0
 145 370 164 383 201 406 c 1
 183 429 175 450 175 472 c 0xfd
 175 482 176 491 179 501 c 0
 187 530 206 557 233 578 c 1
 202 588 187 603 187 625 c 0
 187 630 188 637 190 643 c 0
 200 680 244 712 284 712 c 0
 288 712 295 711 303 710 c 1xfb
EndSplineSet
EndChar

StartChar: psi
Encoding: 121 968 27
Width: 686
Flags: MW
HStem: -222 20 493 20
VStem: 324 65
LayerCount: 2
Fore
SplineSet
473 461 m 1
 359 52 l 1
 422 65 456 101 485 183 c 2
 543 334 l 2
 560 382 573 402 597 426 c 0
 625 454 665 473 697 473 c 0
 713 473 725 470 751 461 c 1
 746 444 l 1
 684 433 672 423 648 361 c 2
 596 216 l 2
 557 111 457 28 349 13 c 1
 295 -182 l 1
 237 -182 l 1
 291 13 l 1
 205 26 153 90 153 174 c 0
 153 187 154 202 157 216 c 2
 185 361 l 2
 187 377 188 389 188 398 c 0
 188 429 175 437 133 444 c 1
 137 461 l 1
 167 470 182 473 198 473 c 0
 233 473 264 451 275 418 c 0
 279 407 281 397 281 385 c 0
 281 372 279 356 275 334 c 2
 249 183 l 2
 245 162 242 143 242 128 c 0
 242 84 261 61 302 52 c 1
 415 461 l 1
 473 461 l 1
EndSplineSet
EndChar

StartChar: zeta
Encoding: 122 950 28
Width: 494
Flags: MW
HStem: -168 75<156 264> 25 93 660 20G<480 504.5>
VStem: 59 56<129 209> 214 57<588 617> 328 46<-14.5 58.5>
LayerCount: 2
Fore
SplineSet
341 702 m 1
 336 684 l 1
 301 672 280 653 274 629 c 0
 272 624 271 619 271 615 c 0
 271 597 283 585 306 577 c 1
 406 649 464 680 496 680 c 0
 513 680 523 671 523 658 c 0
 523 656 523 654 522 651 c 0
 509 606 424 561 334 551 c 1
 241 484 153 361 123 255 c 0
 118 235 115 217 115 201 c 0
 115 149 143 117 192 117 c 2
 209 117 l 1
 220 117 l 1
 230 117 l 1
 249 117 l 2
 331 117 374 87 374 30 c 0
 374 18 372 4 368 -11 c 0
 342 -102 263 -168 176 -168 c 0
 136 -168 111 -152 111 -129 c 0
 111 -126 111 -123 112 -119 c 0
 119 -96 146 -77 174 -77 c 0
 184 -77 184 -77 234 -92 c 0
 239 -93 244 -93 249 -93 c 0
 279 -93 316 -62 325 -28 c 0
 327 -23 328 -17 328 -12 c 0
 328 13 308 28 273 28 c 0
 266 28 243 27 204 25 c 0
 195 24 189 24 183 24 c 0
 147 24 119 35 96 58 c 0
 71 82 59 110 59 148 c 0
 59 172 64 200 73 234 c 0
 105 350 163 438 278 551 c 1
 233 563 214 576 214 600 c 0
 214 605 215 610 217 617 c 0
 230 664 279 698 341 702 c 1
EndSplineSet
EndChar
